<svg width="63" height="63" viewBox="0 0 63 63" fill="none" xmlns="http://www.w3.org/2000/svg">
<circle cx="31.5" cy="31.5" r="31.5" fill="#181724"/>
<path d="M37.0619 17.0688C35.5266 17.0688 34.5638 18.7271 35.325 20.0604L37.506 23.8808C37.7972 24.3909 38.3395 24.7058 38.9269 24.7058C40.1869 24.7058 40.9654 26.085 40.3347 27.1758C40.041 27.6838 40.0364 28.3145 40.3273 28.8241L42.5144 32.6552C43.2796 33.9955 45.2101 34.0009 45.9827 32.6649L53.266 20.0701C54.0371 18.7367 53.0749 17.0688 51.5347 17.0688H37.0619Z" fill="#17E18F"/>
<path d="M37.5564 37.986C36.7913 36.6458 34.8608 36.6404 34.0882 37.9764L33.8218 38.4369C33.0517 39.7686 31.1293 39.7686 30.3592 38.4369L24.154 27.707C23.3829 26.3737 24.3451 24.7058 25.8853 24.7058H26.5317C28.0669 24.7058 29.0297 23.0477 28.2687 21.7144L26.1929 18.0775C25.837 17.4538 25.174 17.0688 24.4559 17.0688H12.6467C11.1064 17.0688 10.1443 18.7368 10.9153 20.0701L20.6351 36.8772L30.3592 53.6918C31.1293 55.0234 33.0517 55.0235 33.8219 53.6918L39.638 43.635C39.9943 43.019 39.9964 42.2602 39.6436 41.6422L37.5564 37.986Z" fill="#17E18F"/>
</svg>
